<svg width="91" height="98" viewBox="0 0 91 98" fill="none" xmlns="http://www.w3.org/2000/svg">
<path d="M42.6479 0.72492C44.4128 -0.241641 46.5872 -0.24164 48.3521 0.724921L88.1479 22.5195C89.9128 23.486 91 25.2723 91 27.2054V70.7946C91 72.7277 89.9128 74.514 88.1479 75.4805L48.3521 97.2751C46.5872 98.2416 44.4128 98.2416 42.6479 97.2751L2.85211 75.4805C1.08722 74.514 0 72.7277 0 70.7946V27.2054C0 25.2723 1.08722 23.486 2.85211 22.5195L42.6479 0.72492Z" fill="#66B6E3"/>
<path d="M42.6479 3.35917C44.4128 2.3926 46.5872 2.39261 48.3521 3.35917L85.7429 23.8366C87.5078 24.8032 88.595 26.5894 88.595 28.5226V69.4774C88.595 71.4106 87.5078 73.1968 85.7429 74.1634L48.3521 94.6408C46.5872 95.6074 44.4128 95.6074 42.6479 94.6408L5.25711 74.1634C3.49221 73.1968 2.405 71.4106 2.405 69.4774V28.5226C2.405 26.5894 3.49222 24.8032 5.25711 23.8366L42.6479 3.35917Z" fill="white"/>
<path d="M45.1152 14.3103C38.4292 14.5117 32.2223 17.6522 28.321 22.8077L27.2729 24.1927C25.8205 26.112 24.0757 27.8161 22.0956 29.2492L20.2713 30.5697C18.0674 32.1649 16.2978 34.2371 15.1102 36.6135C13.2919 40.252 12.9402 44.3961 14.1215 48.2638L15.0907 51.4371C16.0632 54.6212 17.9878 57.4695 20.6315 59.637C20.9888 59.93 21.3575 60.2091 21.7366 60.4737C22.5007 59.245 23.4436 58.1191 24.5414 57.1309C24.4094 56.9843 24.2823 56.8334 24.1601 56.6784C24.1045 56.6079 24.0501 56.5367 23.9966 56.4645C22.9366 55.0331 22.3436 53.3376 22.2913 51.5889L22.2912 51.5876C22.2392 49.839 22.7303 48.1146 23.7034 46.6288L23.7041 46.6277C24.646 45.1901 25.9989 44.0374 27.6036 43.3029C27.5987 42.7001 27.6933 42.0987 27.8854 41.5206L27.886 41.519C28.1632 40.6863 28.6357 39.924 29.2681 39.2896C29.3323 40.1661 29.9915 41.2888 30.445 42.061L30.4539 42.0763C30.886 42.8122 31.4757 43.4536 32.1846 43.9594C32.2315 43.9843 32.278 44.0097 32.324 44.0357C33.0144 44.4262 33.6076 44.9493 34.0352 45.5967C34.4107 46.1655 34.6569 46.8005 34.7599 47.4612C34.7832 47.4681 34.8065 47.4754 34.8297 47.4827C35.1771 47.594 35.5052 47.7521 35.8033 47.9527C36.2398 48.2464 36.6081 48.6246 36.8707 49.0614C36.8717 49.1336 36.8709 49.2056 36.8684 49.2774C36.832 50.3541 36.4188 51.3863 35.6914 52.2075L35.6902 52.2088C35.1192 52.8529 34.3825 53.3357 33.5582 53.6157L33.557 53.6161C33.8115 53.8449 34.0589 54.0802 34.2993 54.3213C35.9814 56.0094 37.3109 57.9924 38.2094 60.1649C38.2743 60.3217 38.3368 60.4794 38.397 60.6377C38.8181 61.7455 39.1234 62.8862 39.3104 64.0434C39.6836 63.9338 40.0533 63.8103 40.4186 63.673C43.4672 62.526 46.8256 62.3485 49.9895 63.1672L51.2063 63.482C53.2918 64.0217 55.4503 64.2161 57.5882 64.0656C57.2908 63.3114 57.0274 62.5436 56.7991 61.7642C55.6419 57.8146 55.4169 53.6756 56.1341 49.6431L56.1344 49.6415C55.9737 49.689 55.8115 49.7312 55.6482 49.7684C54.5058 50.0282 53.3076 50.037 52.1449 49.783L52.1429 49.7825C50.3357 49.3873 48.7419 48.3777 47.6355 46.9467L47.6347 46.9456C47.5317 46.1787 47.6078 45.397 47.8578 44.6535C48.04 44.112 48.3113 43.6 48.6607 43.1353C48.1439 42.2337 47.8277 41.2383 47.7349 40.2112L47.7348 40.2096C47.6223 38.9616 47.879 37.7219 48.4128 36.5763C48.7907 35.3341 48.8904 34.03 48.7047 32.7478L48.7044 32.7459C48.509 31.3998 48.1163 30.0417 47.3369 28.9014L47.3358 28.8998C47.5068 28.861 47.6794 28.8337 47.8525 28.8176C49.0645 28.7045 50.3082 29.128 51.316 29.8104C51.366 29.8444 51.4156 29.8786 51.4648 29.9133C52.2034 30.4347 52.8552 31.0554 53.4006 31.7541C56.0875 31.2498 58.8723 31.4799 61.4298 32.4202C61.595 32.481 61.7588 32.5445 61.9212 32.6109C64.3564 33.6054 66.4597 35.2176 67.9973 37.2746C68.2023 37.5488 68.3961 37.8294 68.5784 38.1159C69.8551 40.1208 70.5724 42.4081 70.6533 44.7603C70.661 44.9863 70.6629 45.2127 70.6589 45.4381C70.6552 45.6446 70.6467 45.8508 70.6332 46.0564C72.9089 46.3042 75.1303 46.8475 77.2365 47.6656C77.9171 43.9612 77.3304 40.1412 75.5529 36.7683C74.2464 34.2892 72.3415 32.1379 69.9931 30.4892L68.2826 29.2883C66.2057 27.8302 64.381 26.0738 62.8742 24.0825L61.9094 22.8077C58.0081 17.6522 51.8012 14.5117 45.1152 14.3103Z" fill="url(#paint0_linear_1471_1231)"/>
<path d="M17.0608 74.442C16.6593 74.4292 14.9111 74.0367 14.535 73.9134C14.4999 73.9062 14.3762 73.8577 14.3503 73.864C14.0902 73.8223 13.8337 73.7119 13.6534 73.5361C13.5424 73.4323 13.4675 73.2781 13.4277 73.131C13.3048 72.7586 13.2832 72.3721 13.2849 71.9905C13.3015 71.0099 13.4754 70.0383 13.7052 69.0898C13.8767 68.3956 14.522 66.224 15.0936 65.7621C15.2747 65.614 15.5224 65.5489 15.7575 65.5392C16.3122 65.5254 17.0391 65.8825 17.1575 66.3814C17.2371 66.6755 17.1518 66.9938 17.0624 67.2765C16.8568 67.9058 16.5132 68.4954 16.249 69.1127C15.9361 69.8359 15.6908 70.5844 15.6095 71.3665C15.5609 71.7386 15.5708 72.1227 15.5431 72.5106C15.7228 72.5821 15.9243 72.6118 16.1167 72.628C16.5691 72.6859 17.0133 72.6726 17.4581 72.7637C17.6103 72.7948 17.764 72.8726 17.875 72.9763C18.0069 73.096 18.0884 73.2747 18.0972 73.4502C18.1208 73.7212 18.0447 74.053 17.8159 74.2492C17.6297 74.4195 17.3143 74.4591 17.0608 74.442Z" fill="url(#paint1_linear_1471_1231)"/>
<path d="M22.9289 68.3256C22.627 68.7 22.1465 68.8603 21.6438 68.7525C21.0466 68.6288 20.4141 68.1774 20.4861 67.6034C20.5185 67.3675 20.6078 67.1527 20.7185 66.953C20.8591 66.7239 21.1404 66.5874 21.4049 66.5401C21.468 66.5278 21.5367 66.5508 21.5998 66.5385C22.4686 66.5126 23.3221 67.0818 23.1588 67.8817C23.1293 68.0376 23.0388 68.1948 22.9289 68.3256ZM21.223 74.8416C20.7762 75.1455 19.985 74.9547 19.5874 74.6118C19.379 74.4272 19.2463 74.1635 19.1726 73.9097C19.0395 73.5195 19.0231 73.0915 19.0517 72.6826C19.0811 71.8831 19.455 69.9694 20.1401 69.4988C20.3367 69.3596 20.6012 69.3122 20.8475 69.2963C21.1785 69.2831 21.5225 69.3297 21.8324 69.4279C22.0716 69.5142 22.3142 69.6471 22.4456 69.8531C22.5673 70.046 22.5542 70.3082 22.5142 70.5198C22.4372 70.8631 22.2561 71.1773 22.1223 71.4995C21.8406 72.1531 21.7155 72.879 21.6419 73.5906C21.6267 73.8639 21.6116 74.1372 21.5375 74.4005C21.4802 74.5747 21.3758 74.741 21.223 74.8416Z" fill="url(#paint2_linear_1471_1231)"/>
<path d="M26.3018 75.8019C25.6207 75.7459 24.9157 75.6068 24.3221 75.2882C23.7945 75.0126 23.3478 74.5193 23.1617 73.9805C22.9567 73.325 23.0547 72.5839 23.2613 71.9258C23.3957 71.5095 23.625 71.1058 23.9358 70.8042C24.3177 70.4321 24.8285 70.1685 25.3431 70.0425C25.8458 69.9149 26.381 69.8944 26.8775 69.9717C27.3842 70.0617 27.9098 70.2684 28.28 70.626C28.4906 70.8367 28.6438 71.1083 28.7225 71.3929C28.8047 71.7351 28.7718 72.1192 28.6728 72.4603C28.5754 72.7901 28.3713 73.1058 28.0856 73.3193C27.7577 73.5728 27.3159 73.6971 26.8908 73.7093C26.2218 73.7349 25.542 73.5077 25.0192 73.1185C25.0419 73.3728 25.1223 73.6463 25.2854 73.8507C25.4673 74.0919 25.7692 74.2575 26.076 74.3096C26.3692 74.3713 26.6757 74.3434 26.9532 74.2659C27.1547 74.2127 27.3526 74.1018 27.5575 74.1061C27.7523 74.0976 27.9084 74.1869 28.007 74.3371C28.1737 74.5991 28.151 74.9959 27.9671 75.2572C27.8304 75.4447 27.6071 75.5636 27.3888 75.6489C27.0555 75.7761 26.661 75.8266 26.3018 75.8019ZM25.9475 72.4875C26.1171 72.5671 26.3137 72.6274 26.5068 72.6302C26.8947 72.6245 27.1885 72.275 27.0724 71.9168C26.9408 71.4995 26.4069 71.3488 25.9635 71.4842C25.6842 71.5729 25.4476 71.7815 25.2924 72.0122C25.4809 72.2086 25.7117 72.3648 25.9475 72.4875Z" fill="url(#paint3_linear_1471_1231)"/>
<path d="M33.604 76.0044C32.5789 76.6543 31.1845 76.3975 30.5085 75.4302C29.7913 74.3911 29.3973 73.1187 29.397 71.8803C29.3962 71.3918 29.5809 70.851 29.9736 70.5214C30.3414 70.201 30.9281 70.104 31.3802 70.2794C31.5655 70.3522 31.7455 70.4814 31.8506 70.6382C31.9654 70.8185 32.0032 71.049 31.9944 71.2641C31.9987 71.344 31.9431 71.7936 31.9355 71.8725C31.8526 72.6038 31.7676 73.3577 31.9396 74.0655C31.9937 74.252 32.1063 74.5798 32.309 74.5974C32.4999 74.6139 32.6963 74.3241 32.7962 74.1623C32.9535 73.9032 33.0784 73.6073 33.1545 73.3185C33.323 72.6968 33.3743 72.0423 33.5428 71.4206C33.5819 71.265 33.6449 71.1114 33.7404 70.9946C33.8923 70.7919 34.1461 70.6548 34.4031 70.6088C35.017 70.4801 35.726 70.7345 35.8623 71.3143C36.0105 71.8952 35.9017 72.522 35.7148 73.0853C35.4432 73.9025 34.983 74.6807 34.3905 75.3339C34.1616 75.5868 33.8979 75.8253 33.604 76.0044Z" fill="url(#paint4_linear_1471_1231)"/>
<path d="M39.8742 69.9755C39.6245 70.3827 39.1693 70.5989 38.6561 70.5517C38.0473 70.5 37.3596 70.1274 37.3545 69.5494C37.3553 69.3116 37.4152 69.0879 37.4984 68.8766C37.6074 68.6326 37.8683 68.4638 38.1243 68.3853C38.1853 68.3656 38.2565 68.3803 38.3175 68.3606C39.1759 68.2316 40.0985 68.6947 40.0431 69.5077C40.0346 69.6659 39.9657 69.8326 39.8742 69.9755ZM39.0501 76.6425C38.6474 76.9971 37.837 76.9018 37.3969 76.6089C37.1655 76.4506 36.9988 76.2048 36.8919 75.9618C36.7078 75.5905 36.6345 75.1679 36.6084 74.7588C36.531 73.9621 36.6469 72.0192 37.2638 71.4709C37.4403 71.3094 37.6964 71.231 37.9386 71.1859C38.2652 71.1335 38.6127 71.1387 38.9333 71.1993C39.1821 71.2565 39.4404 71.3595 39.5982 71.5482C39.7447 71.7252 39.7666 71.9867 39.7552 72.2014C39.7245 72.5511 39.5867 72.8844 39.4969 73.22C39.3045 73.9018 39.2772 74.6369 39.299 75.3516C39.3204 75.6245 39.3417 75.8974 39.3033 76.1674C39.2697 76.3471 39.1883 76.5244 39.0501 76.6425Z" fill="url(#paint5_linear_1471_1231)"/>
<path d="M51.8782 76.7303C51.5016 77.0321 50.8188 77.0345 50.4288 76.7368C50.2581 76.6044 50.1457 76.403 50.0573 76.201C49.9562 75.9654 49.8785 75.7067 49.813 75.4591C49.6158 74.6822 49.5259 73.8806 49.4838 73.0779C49.3942 73.3513 49.3045 73.6247 49.1784 73.8762C49.041 74.1619 48.8438 74.4488 48.56 74.6129C48.3824 74.707 48.1435 74.7344 47.9389 74.6933C47.6138 74.6206 47.3213 74.4001 47.1121 74.1554C46.7802 73.7773 46.5899 73.3058 46.3881 72.8572C46.3521 73.3898 46.3524 73.933 46.4479 74.4516C46.5315 74.9705 46.6986 75.4764 46.7104 75.9967C46.7157 76.2342 46.6614 76.4843 46.5218 76.6682C46.4288 76.7945 46.2752 76.8881 46.1205 76.9365C45.7519 77.0571 45.2716 77.0101 44.9792 76.7897C44.7718 76.6241 44.6586 76.3887 44.5575 76.1531C44.3545 75.648 44.2584 75.1067 44.1746 74.5765C44.0452 73.6172 43.9991 72.6336 44.025 71.6599C44.0475 71.0597 44.0938 70.459 44.2123 69.8682C44.2671 69.6407 44.3221 69.4246 44.4131 69.2078C44.4816 69.0593 44.5621 68.9106 44.6916 68.8061C45.0801 68.5041 45.9295 68.4531 46.3545 68.7048C46.4757 68.7703 46.5978 68.8697 46.6368 69.0047C46.7397 69.3195 46.8072 69.6576 46.8745 69.9844C46.983 70.548 47.0915 71.1117 47.2594 71.6515C47.3491 71.91 47.451 72.1795 47.6235 72.3911C47.8084 72.625 48.1369 72.8447 48.4092 72.7035C48.6693 72.5511 48.8061 72.2428 48.9198 71.9689C49.2821 71.0337 49.4635 70.0456 49.8742 69.132C49.9654 68.9265 50.1412 68.7532 50.3427 68.6586C50.6624 68.4937 51.0691 68.4629 51.4184 68.5465C51.7073 68.6086 51.9987 68.7838 52.1478 69.0184C52.2976 69.287 52.3052 69.6263 52.2879 69.9209C52.2433 70.6008 52.0543 71.2496 51.9493 71.9081C51.8229 72.6801 51.7689 73.4734 51.8701 74.2408C51.9549 74.8163 52.1592 75.378 52.1722 75.9548C52.1783 76.2263 52.0897 76.545 51.8782 76.7303Z" fill="url(#paint6_linear_1471_1231)"/>
<path d="M56.1474 69.6573C55.9514 70.09 55.527 70.3563 55.0116 70.3678C54.4006 70.3857 53.6705 70.0939 53.5918 69.5207C53.5622 69.2845 53.5933 69.0556 53.649 68.8364C53.7261 68.5818 53.9636 68.3845 54.2078 68.2776C54.2658 68.2511 54.3383 68.2576 54.3964 68.2311C55.2321 68.0055 56.207 68.3604 56.2555 69.1738C56.2673 69.3318 56.2201 69.5051 56.1474 69.6573ZM56.1783 76.3696C55.8237 76.7674 55.0071 76.7649 54.5329 76.5241C54.283 76.3933 54.0862 76.1682 53.9491 75.9391C53.7191 75.5914 53.5925 75.1802 53.5145 74.777C53.3363 73.995 53.2038 72.053 53.7465 71.4385C53.9011 71.2581 54.1453 71.1512 54.3801 71.0789C54.6976 70.9898 55.0433 70.9555 55.3692 70.9792C55.6235 71.0077 55.893 71.0806 56.0737 71.2501C56.2416 71.409 56.2968 71.6663 56.3127 71.8807C56.3268 72.2313 56.2325 72.5779 56.186 72.9212C56.0819 73.6199 56.1484 74.3527 56.261 75.0598C56.317 75.3283 56.373 75.5968 56.3692 75.8692C56.3588 76.0514 56.3005 76.2367 56.1783 76.3696Z" fill="url(#paint7_linear_1471_1231)"/>
<path d="M59.825 75.8416C59.6163 76.5348 58.5909 76.732 58.105 76.179C57.9387 75.9914 57.8611 75.7376 57.7966 75.4939C57.5719 74.5953 57.5588 73.652 57.4637 72.7285C57.4326 72.3562 57.412 71.9713 57.4285 71.594C57.442 71.3991 57.4794 71.2018 57.5789 71.0208C57.6572 70.8647 57.8214 70.7225 57.9908 70.6253C58.1497 70.5405 58.364 70.5184 58.5491 70.5561C58.8823 70.624 59.1265 70.963 59.2463 71.2692C59.6029 70.8112 60.1854 70.4322 60.7794 70.3593C61.1842 70.3174 61.6246 70.3743 61.9628 70.5897C62.132 70.6973 62.2799 70.83 62.4291 70.9739C62.8147 71.3892 63.036 71.9468 63.182 72.478C63.37 73.1642 63.4667 73.894 63.4154 74.5936C63.3991 74.8684 63.396 75.1533 63.2673 75.3942C62.9091 76.0459 61.9604 76.2807 61.5276 75.6654C61.4114 75.4953 61.3522 75.2966 61.3288 75.0941C61.2581 74.5893 61.3066 74.0721 61.2598 73.5648C61.2208 73.1249 61.1302 72.6562 60.8822 72.2836C60.8399 72.231 60.7964 72.1673 60.7316 72.1284C60.4687 71.9394 60.1377 72.2013 59.964 72.4697C59.7691 72.763 59.7156 73.1328 59.7203 73.4851C59.7286 74.0761 59.8705 74.676 59.8921 75.277C59.8904 75.4706 59.8888 75.6643 59.825 75.8416Z" fill="url(#paint8_linear_1471_1231)"/>
<path d="M69.4351 74.1859C68.7528 75.0329 67.6207 75.5121 66.5029 75.4277C65.9873 75.3905 65.4691 75.1933 65.0777 74.8855C64.7157 74.6076 64.4432 74.2131 64.2753 73.7915C64.0169 73.1201 64.0193 72.3407 64.155 71.633C64.2269 71.2671 64.3616 70.9147 64.5494 70.5887C64.6973 70.3145 64.8944 70.0443 65.1558 69.8676C65.2547 69.807 65.3693 69.7669 65.48 69.7044C65.9686 69.4364 66.57 69.3347 67.1428 69.3519C67.753 69.3749 68.4114 69.5396 68.8968 69.9021C69.2824 70.1765 69.5805 70.5785 69.7838 70.9948C70.0684 71.6051 70.1058 72.3326 69.9862 72.9921C69.9001 73.4174 69.7037 73.8363 69.4351 74.1859ZM66.9562 73.4352C67.1368 73.4997 67.3634 73.4772 67.5452 73.4041C67.7605 73.3145 67.9372 73.1391 68.0647 72.9596C68.4116 72.4264 68.3597 71.5406 67.8649 71.1223C67.6967 70.9871 67.4612 70.885 67.2327 70.8964C67.1854 70.9035 67.1244 70.9012 67.0633 70.8989C66.955 70.9037 66.7074 71.0897 66.6358 71.1692C66.3957 71.4 66.2572 71.7301 66.2151 72.0571C66.175 72.3954 66.2488 72.7623 66.4533 73.0409C66.5799 73.2167 66.75 73.363 66.9562 73.4352Z" fill="url(#paint9_linear_1471_1231)"/>
<path d="M77.7396 72.7303C77.876 73.3391 77.209 73.75 76.5753 73.5991C76.4081 73.5631 76.2661 73.4758 76.1426 73.3617C75.8431 73.0631 75.6669 72.6588 75.5191 72.2721C75.3303 72.7955 75.0452 73.3266 74.6292 73.7104C74.3458 73.9752 73.9888 74.1853 73.5904 74.2649C73.3117 74.3322 72.9921 74.3267 72.7071 74.2564C72.3702 74.1734 72.0603 73.9925 71.8041 73.7777C71.3059 73.3569 70.9604 72.7436 70.8216 72.1238C70.6679 71.4375 70.6172 70.7191 70.7078 70.0303C70.7555 69.6969 70.8878 69.3582 71.1269 69.1139C71.4054 68.8269 71.8617 68.6779 72.2707 68.7003C72.4706 68.7181 72.6946 68.789 72.8255 68.9363C72.9447 69.086 72.9986 69.2718 73.0241 69.4402C73.0782 69.8457 73.0009 70.2659 72.968 70.6656C72.9162 71.2542 72.9094 71.88 73.174 72.4053C73.2605 72.5731 73.3871 72.7559 73.5735 72.8228C73.6654 72.8507 73.7641 72.8541 73.8579 72.8353C74.0546 72.7845 74.2031 72.6276 74.3282 72.4754C74.4969 72.2451 74.6114 71.9909 74.7117 71.728C74.8322 71.3917 74.7148 69.9928 74.6966 69.6379C74.674 69.3186 74.6515 68.9993 74.7159 68.6858C74.754 68.5278 74.8248 68.3518 74.9431 68.2241C75.0823 68.0806 75.2716 67.9965 75.4683 67.9456C75.7822 67.8713 76.2097 67.8669 76.4425 68.0863C76.5802 68.2091 76.6692 68.388 76.7323 68.5604C76.9018 68.9891 76.9238 69.4704 76.9761 69.9225C77.0372 70.5232 77.1476 71.1256 77.3518 71.7092C77.4755 72.043 77.6486 72.3785 77.7396 72.7303Z" fill="url(#paint10_linear_1471_1231)"/>
<defs>
<linearGradient id="paint0_linear_1471_1231" x1="45.4735" y1="14.3103" x2="45.4735" y2="64.1149" gradientUnits="userSpaceOnUse">
<stop stop-color="#6FE3E1"/>
<stop offset="1" stop-color="#5257E5"/>
</linearGradient>
<linearGradient id="paint1_linear_1471_1231" x1="45.5212" y1="65.5388" x2="45.5212" y2="77.0013" gradientUnits="userSpaceOnUse">
<stop stop-color="#6FE3E1"/>
<stop offset="1" stop-color="#5257E5"/>
</linearGradient>
<linearGradient id="paint2_linear_1471_1231" x1="45.5212" y1="65.5388" x2="45.5212" y2="77.0013" gradientUnits="userSpaceOnUse">
<stop stop-color="#6FE3E1"/>
<stop offset="1" stop-color="#5257E5"/>
</linearGradient>
<linearGradient id="paint3_linear_1471_1231" x1="45.5212" y1="65.5388" x2="45.5212" y2="77.0013" gradientUnits="userSpaceOnUse">
<stop stop-color="#6FE3E1"/>
<stop offset="1" stop-color="#5257E5"/>
</linearGradient>
<linearGradient id="paint4_linear_1471_1231" x1="45.5212" y1="65.5388" x2="45.5212" y2="77.0013" gradientUnits="userSpaceOnUse">
<stop stop-color="#6FE3E1"/>
<stop offset="1" stop-color="#5257E5"/>
</linearGradient>
<linearGradient id="paint5_linear_1471_1231" x1="45.5212" y1="65.5388" x2="45.5212" y2="77.0013" gradientUnits="userSpaceOnUse">
<stop stop-color="#6FE3E1"/>
<stop offset="1" stop-color="#5257E5"/>
</linearGradient>
<linearGradient id="paint6_linear_1471_1231" x1="45.5212" y1="65.5388" x2="45.5212" y2="77.0013" gradientUnits="userSpaceOnUse">
<stop stop-color="#6FE3E1"/>
<stop offset="1" stop-color="#5257E5"/>
</linearGradient>
<linearGradient id="paint7_linear_1471_1231" x1="45.5212" y1="65.5388" x2="45.5212" y2="77.0013" gradientUnits="userSpaceOnUse">
<stop stop-color="#6FE3E1"/>
<stop offset="1" stop-color="#5257E5"/>
</linearGradient>
<linearGradient id="paint8_linear_1471_1231" x1="45.5212" y1="65.5388" x2="45.5212" y2="77.0013" gradientUnits="userSpaceOnUse">
<stop stop-color="#6FE3E1"/>
<stop offset="1" stop-color="#5257E5"/>
</linearGradient>
<linearGradient id="paint9_linear_1471_1231" x1="45.5212" y1="65.5388" x2="45.5212" y2="77.0013" gradientUnits="userSpaceOnUse">
<stop stop-color="#6FE3E1"/>
<stop offset="1" stop-color="#5257E5"/>
</linearGradient>
<linearGradient id="paint10_linear_1471_1231" x1="45.5212" y1="65.5388" x2="45.5212" y2="77.0013" gradientUnits="userSpaceOnUse">
<stop stop-color="#6FE3E1"/>
<stop offset="1" stop-color="#5257E5"/>
</linearGradient>
</defs>
</svg>
